<svg width="26" height="26" viewBox="0 0 26 26" fill="black" xmlns="http://www.w3.org/2000/svg">
<path d="M18 13C18 13.553 17.552 14 17 14H14V17C14 17.553 13.552 18 13 18C12.448 18 12 17.553 12 17V14H9C8.448 14 8 13.553 8 13C8 12.447 8.448 12 9 12H12V9C12 8.447 12.448 8 13 8C13.552 8 14 8.447 14 9V12H17C17.552 12 18 12.447 18 13ZM25 6V20C25 22.757 22.757 25 20 25H6C3.243 25 1 22.757 1 20V6C1 3.243 3.243 1 6 1H20C22.757 1 25 3.243 25 6ZM23 6C23 4.346 21.654 3 20 3H6C4.346 3 3 4.346 3 6V20C3 21.654 4.346 23 6 23H20C21.654 23 23 21.654 23 20V6Z" fill="currentColor"/>
</svg>
