<svg width="29" height="28" viewBox="0 0 29 28" fill="currentColor" xmlns="http://www.w3.org/2000/svg">
<path d="M9.79696 25.8976H5.01111C2.63003 25.8976 1.48096 24.8389 1.48096 22.6533V4.66718C1.48096 2.48153 2.64188 1.42285 5.01111 1.42285H9.79696C12.178 1.42285 13.3271 2.48153 13.3271 4.66718V22.6533C13.3271 24.8389 12.1662 25.8976 9.79696 25.8976ZM5.01111 3.13039C3.50665 3.13039 3.25788 3.51744 3.25788 4.66718V22.6533C3.25788 23.803 3.50665 24.1901 5.01111 24.1901H9.79696C11.3014 24.1901 11.5502 23.803 11.5502 22.6533V4.66718C11.5502 3.51744 11.3014 3.13039 9.79696 3.13039H5.01111Z" fill=""/>
<path d="M23.4195 15.6524H18.6337C16.2526 15.6524 15.1035 14.5937 15.1035 12.408V4.66718C15.1035 2.48153 16.2644 1.42285 18.6337 1.42285H23.4195C25.8006 1.42285 26.9497 2.48153 26.9497 4.66718V12.408C26.9497 14.5937 25.7887 15.6524 23.4195 15.6524ZM18.6337 3.13039C17.1292 3.13039 16.8804 3.51744 16.8804 4.66718V12.408C16.8804 13.5578 17.1292 13.9448 18.6337 13.9448H23.4195C24.924 13.9448 25.1727 13.5578 25.1727 12.408V4.66718C25.1727 3.51744 24.924 3.13039 23.4195 3.13039H18.6337Z" fill=""/>
<path d="M23.4195 25.8971H18.6337C16.2526 25.8971 15.1035 24.8384 15.1035 22.6528V20.6037C15.1035 18.4181 16.2644 17.3594 18.6337 17.3594H23.4195C25.8006 17.3594 26.9497 18.4181 26.9497 20.6037V22.6528C26.9497 24.8384 25.7887 25.8971 23.4195 25.8971ZM18.6337 19.0669C17.1292 19.0669 16.8804 19.454 16.8804 20.6037V22.6528C16.8804 23.8025 17.1292 24.1895 18.6337 24.1895H23.4195C24.924 24.1895 25.1727 23.8025 25.1727 22.6528V20.6037C25.1727 19.454 24.924 19.0669 23.4195 19.0669H18.6337Z" fill=""/>
</svg>
