<svg width="16" height="16" viewBox="0 0 16 16" fill="none" xmlns="http://www.w3.org/2000/svg">
<g clip-path="url(#clip0_7_37565)">
<path d="M13 0H3C1.346 0 0 1.346 0 3V13C0 14.654 1.346 16 3 16H13C14.654 16 16 14.654 16 13V3C16 1.346 14.654 0 13 0ZM15.3333 13C15.3333 14.2867 14.2867 15.3333 13 15.3333H3C1.71333 15.3333 0.666667 14.2867 0.666667 13V3C0.666667 1.71333 1.71333 0.666667 3 0.666667H13C14.2867 0.666667 15.3333 1.71333 15.3333 3V13ZM9.82133 3.82133L4.01667 9.626C3.576 10.066 3.33333 10.652 3.33333 11.276V12.3333C3.33333 12.5173 3.48267 12.6667 3.66667 12.6667H4.724C5.338 12.6667 5.93933 12.4173 6.374 11.9833L12.1787 6.17867C12.8287 5.52867 12.8287 4.47133 12.1787 3.822C11.55 3.192 10.4507 3.192 9.822 3.822L9.82133 3.82133ZM5.902 11.5113C5.592 11.822 5.162 11.9993 4.72333 11.9993H3.99933V11.2753C3.99933 10.83 4.17267 10.4113 4.48733 10.0967L8.89 5.694L10.304 7.108L5.90133 11.5107L5.902 11.5113ZM11.7067 5.70667L10.776 6.63733L9.362 5.22333L10.2927 4.29267C10.67 3.91533 11.3293 3.91533 11.7067 4.29267C12.0967 4.68267 12.0967 5.31667 11.7067 5.70667Z" fill="#1890FF"/>
</g>
<defs>
<clipPath id="clip0_7_37565">
<rect width="16" height="16" fill="white"/>
</clipPath>
</defs>
</svg>
