<svg width="28" height="27" viewBox="0 0 28 27" fill="none" xmlns="http://www.w3.org/2000/svg">
<path d="M19.833 23.5433H8.16634C3.49967 23.5433 2.33301 22.4222 2.33301 17.9378V8.96885C2.33301 4.48439 3.49967 3.36328 8.16634 3.36328H19.833C24.4997 3.36328 25.6663 4.48439 25.6663 8.96885V17.9378C25.6663 22.4222 24.4997 23.5433 19.833 23.5433Z" stroke="currentColor" stroke-width="1.75" stroke-linecap="round" stroke-linejoin="round"/>
<path d="M16.333 8.96875H22.1663" stroke="currentColor" stroke-width="1.75" stroke-linecap="round" stroke-linejoin="round"/>
<path d="M17.5 13.4531H22.1667" stroke="currentColor" stroke-width="1.75" stroke-linecap="round" stroke-linejoin="round"/>
<path d="M19.833 17.938H22.1663" stroke="currentColor" stroke-width="1.75" stroke-linecap="round" stroke-linejoin="round"/>
<path d="M9.91733 12.6571C11.0836 12.6571 12.029 11.7486 12.029 10.6278C12.029 9.50714 11.0836 8.59863 9.91733 8.59863C8.75109 8.59863 7.80566 9.50714 7.80566 10.6278C7.80566 11.7486 8.75109 12.6571 9.91733 12.6571Z" stroke="currentColor" stroke-width="1.75" stroke-linecap="round" stroke-linejoin="round"/>
<path d="M13.9997 18.3073C13.8363 16.6817 12.4947 15.4036 10.803 15.2579C10.2197 15.2018 9.62467 15.2018 9.02967 15.2579C7.33801 15.4148 5.99634 16.6817 5.83301 18.3073" stroke="currentColor" stroke-width="1.75" stroke-linecap="round" stroke-linejoin="round"/>
</svg>
