<svg width="31" height="30" viewBox="0 0 31 30" fill="none" xmlns="http://www.w3.org/2000/svg">
<path opacity="0.4" d="M20.6069 3.07959H9.94027C5.30704 3.07959 2.54492 5.73386 2.54492 10.1862V20.4241C2.54492 24.8886 5.30704 27.5429 9.94027 27.5429H20.5942C25.2274 27.5429 27.9895 24.8886 27.9895 20.4363V10.1862C28.0022 5.73386 25.2401 3.07959 20.6069 3.07959Z" fill="#EBEBEB"/>
<path d="M15.2748 16.5347C14.562 16.5347 14.002 15.9843 14.002 15.3115C14.002 14.6388 14.5747 14.0884 15.2748 14.0884C15.9749 14.0884 16.5477 14.6388 16.5477 15.3115C16.5477 15.9843 15.9876 16.5347 15.2748 16.5347Z" fill="#292D32"/>
<path d="M20.3666 16.5347C19.6538 16.5347 19.0938 15.9843 19.0938 15.3115C19.0938 14.6388 19.6665 14.0884 20.3666 14.0884C21.0667 14.0884 21.6395 14.6388 21.6395 15.3115C21.6395 15.9843 21.0794 16.5347 20.3666 16.5347Z" fill="#292D32"/>
<path d="M10.183 16.5347C9.47022 16.5347 8.91016 15.9843 8.91016 15.3115C8.91016 14.6388 9.48295 14.0884 10.183 14.0884C10.8831 14.0884 11.4559 14.6388 11.4559 15.3115C11.4559 15.9843 10.8958 16.5347 10.183 16.5347Z" fill="#292D32"/>
</svg>
