<svg width="29" height="28" viewBox="0 0 29 28" fill="none" xmlns="http://www.w3.org/2000/svg">
  <path d="M12.216 12.9468H9.01396C8.25271 12.9468 7.63647 13.5389 7.63647 14.2704V20.2155H12.216V12.9468V12.9468Z" stroke="currentColor" stroke-width="1.5" stroke-miterlimit="10" stroke-linecap="round" stroke-linejoin="round"/>
  <path d="M15.4196 7.66357H13.5829C12.8217 7.66357 12.2054 8.25578 12.2054 8.98731V20.2041H16.785V8.98731C16.785 8.25578 16.1809 7.66357 15.4196 7.66357Z" stroke="currentColor" stroke-width="1.5" stroke-miterlimit="10" stroke-linecap="round" stroke-linejoin="round"/>
  <path d="M19.9954 14.9209H16.7933V20.2042H21.3729V16.2446C21.3608 15.5131 20.7446 14.9209 19.9954 14.9209Z" stroke="currentColor" stroke-width="1.5" stroke-miterlimit="10" stroke-linecap="round" stroke-linejoin="round"/>
  <path d="M10.8747 25.5453H18.1247C24.1664 25.5453 26.583 23.223 26.583 17.4173V10.4503C26.583 4.64457 24.1664 2.32227 18.1247 2.32227H10.8747C4.83305 2.32227 2.41638 4.64457 2.41638 10.4503V17.4173C2.41638 23.223 4.83305 25.5453 10.8747 25.5453Z" stroke="currentColor" stroke-width="1.5" stroke-linecap="round" stroke-linejoin="round"/>
</svg>
