<svg width="26" height="26" viewBox="0 0 26 26" fill="none" xmlns="http://www.w3.org/2000/svg">
<path d="M24.9167 20.5835V18.4169C24.9127 15.4456 23.8 12.5829 21.7962 10.389C19.7925 8.19506 17.042 6.82801 14.0833 6.55545V5.11679C14.4964 4.87831 14.8192 4.5102 15.0017 4.06954C15.1843 3.62889 15.2163 3.14033 15.0928 2.67962C14.9694 2.21892 14.6974 1.81182 14.319 1.52146C13.9406 1.23111 13.477 1.07373 13 1.07373C12.523 1.07373 12.0594 1.23111 11.681 1.52146C11.3026 1.81182 11.0306 2.21892 10.9072 2.67962C10.7837 3.14033 10.8157 3.62889 10.9983 4.06954C11.1808 4.5102 11.5036 4.87831 11.9167 5.11679V6.55545C8.95797 6.82801 6.20752 8.19506 4.20377 10.389C2.20003 12.5829 1.08727 15.4456 1.08333 18.4169V20.5835C0.796016 20.5835 0.520465 20.6977 0.317301 20.9008C0.114137 21.104 0 21.3796 0 21.6669C0 21.9542 0.114137 22.2297 0.317301 22.4329C0.520465 22.6361 0.796016 22.7502 1.08333 22.7502H24.9167C25.204 22.7502 25.4795 22.6361 25.6827 22.4329C25.8859 22.2297 26 21.9542 26 21.6669C26 21.3796 25.8859 21.104 25.6827 20.9008C25.4795 20.6977 25.204 20.5835 24.9167 20.5835ZM3.25 18.4169C3.76242 5.48837 22.2419 5.49812 22.75 18.4169V20.5835H3.25V18.4169Z" fill="currentColor"/>
</svg>
